<svg width="16" height="16" viewBox="0 0 16 16" fill="none" xmlns="http://www.w3.org/2000/svg">
<path d="M12.0202 7.64644L7.68689 3.3131C7.49162 3.11784 7.17504 3.11784 6.97978 3.3131C6.80227 3.49061 6.78613 3.76839 6.93137 3.96413L6.97978 4.02021L10.46 7.49999H2.5C2.24687 7.49999 2.03767 7.68809 2.00456 7.93214L2 7.99999C2 8.25312 2.1881 8.46232 2.43215 8.49543L2.5 8.49999H10.46L6.97978 11.9798C6.80227 12.1573 6.78613 12.4351 6.93137 12.6308L6.97978 12.6869C7.15729 12.8644 7.43507 12.8805 7.63081 12.7353L7.68689 12.6869L12.0202 8.35354C12.1977 8.17603 12.2139 7.89826 12.0686 7.70252L12.0202 7.64644L7.68689 3.3131L12.0202 7.64644ZM14 12.3333V3.66666C14 3.39051 13.7761 3.16666 13.5 3.16666C13.2239 3.16666 13 3.39051 13 3.66666V12.3333C13 12.6095 13.2239 12.8333 13.5 12.8333C13.7761 12.8333 14 12.6095 14 12.3333Z" fill="#212121"/>
</svg>
