<svg width="98" height="20" viewBox="0 0 98 20" fill="none" xmlns="http://www.w3.org/2000/svg">
<path d="M28.5437 7.93931V15.648H26.1456V3.61905H28.005L34.4347 11.5141V3.63599H36.8328V15.648H34.8865L28.5437 7.93931Z" fill="#212121"/>
<path d="M43.26 15.8174C42.5186 15.8174 41.8525 15.6932 41.2616 15.4447C40.6708 15.1962 40.1668 14.863 39.7498 14.4451C39.3443 14.0159 39.0315 13.5246 38.8114 12.9712C38.5913 12.4177 38.4812 11.836 38.4812 11.2261C38.4812 10.6049 38.5913 10.0176 38.8114 9.46411C39.0315 8.91067 39.3443 8.42499 39.7498 8.00708C40.1668 7.57788 40.6708 7.23903 41.2616 6.99055C41.8525 6.74206 42.5186 6.61782 43.26 6.61782C44.0015 6.61782 44.6618 6.74206 45.2411 6.99055C45.8319 7.23903 46.3301 7.57788 46.7355 8.00708C47.1526 8.42499 47.4712 8.91067 47.6913 9.46411C47.9114 10.0176 48.0215 10.6049 48.0215 11.2261C48.0215 11.836 47.9114 12.4177 47.6913 12.9712C47.4712 13.5246 47.1584 14.0159 46.7529 14.4451C46.3474 14.863 45.8493 15.1962 45.2585 15.4447C44.6676 15.6932 44.0015 15.8174 43.26 15.8174ZM40.8793 11.2261C40.8793 11.6214 40.9372 11.9829 41.0531 12.3104C41.1805 12.6267 41.3485 12.9034 41.557 13.1406C41.7772 13.3778 42.032 13.5641 42.3217 13.6997C42.6113 13.8239 42.9241 13.886 43.26 13.886C43.596 13.886 43.9088 13.8239 44.1984 13.6997C44.488 13.5641 44.7371 13.3778 44.9457 13.1406C45.1658 12.9034 45.3338 12.621 45.4496 12.2935C45.577 11.9659 45.6408 11.6045 45.6408 11.2092C45.6408 10.8251 45.577 10.4694 45.4496 10.1418C45.3338 9.81425 45.1658 9.53188 44.9457 9.29469C44.7371 9.0575 44.488 8.87678 44.1984 8.75254C43.9088 8.617 43.596 8.54923 43.26 8.54923C42.9241 8.54923 42.6113 8.617 42.3217 8.75254C42.032 8.88808 41.7772 9.07444 41.557 9.31163C41.3485 9.54882 41.1805 9.83119 41.0531 10.1587C40.9372 10.4863 40.8793 10.8421 40.8793 11.2261Z" fill="#212121"/>
<path d="M54.931 15.1906C54.6182 15.3261 54.2359 15.4617 53.784 15.5972C53.3322 15.7327 52.8572 15.8005 52.3591 15.8005C52.0347 15.8005 51.7277 15.761 51.4381 15.6819C51.16 15.6028 50.911 15.4786 50.6908 15.3092C50.4823 15.1285 50.3143 14.9026 50.1869 14.6315C50.0595 14.3491 49.9957 14.0103 49.9957 13.615V8.51535H48.7967V6.7703H49.9957V3.89012H52.3243V6.7703H54.2359V8.51535H52.3243V12.8526C52.3243 13.1688 52.4054 13.3947 52.5676 13.5302C52.7414 13.6545 52.9499 13.7166 53.1932 13.7166C53.4365 13.7166 53.674 13.6771 53.9057 13.598C54.1374 13.519 54.3228 13.4512 54.4618 13.3947L54.931 15.1906Z" fill="#212121"/>
<path d="M60.1459 15.8174C59.416 15.8174 58.7557 15.6988 58.1648 15.4617C57.574 15.2132 57.07 14.88 56.653 14.4621C56.2359 14.0442 55.9115 13.5585 55.6798 13.005C55.4597 12.4516 55.3497 11.8699 55.3497 11.26C55.3497 10.6275 55.4597 10.0345 55.6798 9.48105C55.8999 8.91631 56.2185 8.42499 56.6356 8.00708C57.0527 7.57788 57.5566 7.23903 58.1474 6.99055C58.7499 6.74206 59.4218 6.61782 60.1632 6.61782C60.9047 6.61782 61.565 6.74206 62.1443 6.99055C62.7351 7.23903 63.2333 7.57223 63.6387 7.99014C64.0558 8.40805 64.3686 8.89372 64.5771 9.44717C64.7972 10.0006 64.9073 10.5767 64.9073 11.1753C64.9073 11.3221 64.9015 11.4633 64.8899 11.5988C64.8899 11.7344 64.8783 11.8473 64.8552 11.9377H57.8173C57.852 12.2878 57.9389 12.5984 58.0779 12.8695C58.2169 13.1406 58.3965 13.3721 58.6166 13.5641C58.8367 13.7561 59.0858 13.903 59.3639 14.0046C59.6419 14.1063 59.9315 14.1571 60.2327 14.1571C60.6961 14.1571 61.1306 14.0498 61.5361 13.8352C61.9531 13.6093 62.237 13.3156 62.3876 12.9542L64.386 13.4964C64.05 14.1741 63.5113 14.7331 62.7699 15.1736C62.04 15.6028 61.1653 15.8174 60.1459 15.8174ZM62.5092 10.4637C62.4513 9.79731 62.1964 9.26645 61.7446 8.87113C61.3044 8.46452 60.7657 8.26122 60.1285 8.26122C59.8157 8.26122 59.5203 8.31769 59.2422 8.43064C58.9758 8.53229 58.7383 8.67912 58.5297 8.87113C58.3212 9.06315 58.1474 9.29469 58.0084 9.56577C57.881 9.83684 57.8057 10.1362 57.7825 10.4637H62.5092Z" fill="#212121"/>
<path d="M71.0268 18.3757C71.0847 18.387 71.1426 18.3927 71.2006 18.3927C71.2585 18.404 71.3164 18.4096 71.3743 18.4096C71.4902 18.4096 71.6118 18.3983 71.7393 18.3757C71.8783 18.3531 71.9768 18.3305 72.0347 18.308C72.0926 18.2854 72.1505 18.2345 72.2085 18.1555C72.278 18.0877 72.3591 17.9578 72.4517 17.7658C72.556 17.5851 72.6834 17.3253 72.834 16.9865C72.9846 16.6589 73.1758 16.2128 73.4075 15.648L69.4628 6.82113H70.6966L74.0505 14.5807L77.1437 6.82113H78.2732L73.5639 18.2063C73.3901 18.6242 73.1526 18.9348 72.8514 19.1381C72.5618 19.3414 72.1505 19.4431 71.6176 19.4431C71.3975 19.4431 71.2006 19.4261 71.0268 19.3923V18.3757Z" fill="#212121"/>
<path d="M83.4945 15.8174C82.8341 15.8174 82.2259 15.6988 81.6699 15.4617C81.1254 15.2132 80.6504 14.88 80.2449 14.4621C79.851 14.0442 79.544 13.5585 79.3239 13.005C79.1038 12.4516 78.9937 11.8699 78.9937 11.26C78.9937 10.6388 79.1038 10.0514 79.3239 9.498C79.5556 8.94455 79.8684 8.45887 80.2623 8.04097C80.6677 7.62306 81.1427 7.28986 81.6872 7.04138C82.2433 6.79289 82.8457 6.66865 83.4945 6.66865C84.1433 6.66865 84.7399 6.79289 85.2844 7.04138C85.8405 7.28986 86.3154 7.62306 86.7093 8.04097C87.1148 8.45887 87.4276 8.94455 87.6477 9.498C87.8794 10.0514 87.9953 10.6388 87.9953 11.26C87.9953 11.8699 87.8794 12.4516 87.6477 13.005C87.4276 13.5585 87.1148 14.0442 86.7093 14.4621C86.3154 14.88 85.8405 15.2132 85.2844 15.4617C84.7399 15.6988 84.1433 15.8174 83.4945 15.8174ZM80.2101 11.2769C80.2101 11.7739 80.2912 12.237 80.4534 12.6662C80.6272 13.0841 80.8589 13.4568 81.1485 13.7844C81.4497 14.1006 81.7973 14.3491 82.1912 14.5298C82.5967 14.7106 83.0253 14.8009 83.4771 14.8009C83.9289 14.8009 84.3518 14.7106 84.7457 14.5298C85.1512 14.3378 85.5045 14.0837 85.8057 13.7674C86.1069 13.4399 86.3444 13.0615 86.5182 12.6323C86.692 12.2031 86.7788 11.74 86.7788 11.243C86.7788 10.7574 86.692 10.2999 86.5182 9.87073C86.3444 9.43023 86.1069 9.05185 85.8057 8.7356C85.5045 8.40805 85.1569 8.15391 84.7631 7.9732C84.3692 7.78119 83.9463 7.68518 83.4945 7.68518C83.0427 7.68518 82.614 7.78119 82.2086 7.9732C81.8147 8.15391 81.4671 8.40805 81.1659 8.7356C80.8763 9.06315 80.6446 9.44717 80.4708 9.88767C80.297 10.3169 80.2101 10.78 80.2101 11.2769Z" fill="#212121"/>
<path d="M92.7172 15.8174C91.7672 15.8174 91.049 15.5012 90.5624 14.8687C90.0758 14.2249 89.8326 13.2705 89.8326 12.0054V6.82113H91.0142V11.8021C91.0142 13.8013 91.7151 14.8009 93.1169 14.8009C93.4644 14.8009 93.8062 14.7444 94.1422 14.6315C94.4781 14.5185 94.7851 14.3548 95.0632 14.1402C95.3528 13.9256 95.6077 13.6714 95.8278 13.3778C96.0595 13.0841 96.2449 12.7509 96.3839 12.3782V6.82113H97.5656V14.1571C97.5656 14.4734 97.7104 14.6315 98 14.6315V15.648C97.7683 15.6819 97.6061 15.6988 97.5134 15.6988C97.247 15.6988 97.0153 15.6198 96.8183 15.4617C96.633 15.3035 96.5403 15.1059 96.5403 14.8687V13.6488C96.1348 14.3378 95.5961 14.8743 94.9242 15.2584C94.2522 15.6311 93.5166 15.8174 92.7172 15.8174Z" fill="#212121"/>
<path d="M13.5914 0.0005174C15.1493 0.0005174 16.4122 1.23181 16.4122 2.75069V17.2498C16.4122 18.7687 15.1493 20 13.5914 20H2.82083C1.26293 20 0 18.7687 0 17.2498V2.75069C0 1.23181 1.26293 0.0005174 2.82083 0.0005174L3.11976 0V8.16765C3.11976 8.91575 3.93049 9.18176 4.47231 8.90701L4.56491 8.85291L6.7118 7.65558L8.9074 8.88504C9.36429 9.19326 10.2004 8.98592 10.2919 8.29466L10.3001 8.16765V0L13.5914 0.0005174Z" fill="#212121"/>
<path d="M8.76142 7.07613V0H4.65839V7.07545L6.17513 6.22957L6.28483 6.16669C6.54915 6.03811 6.86547 6.03564 7.09805 6.14417L8.76142 7.07613Z" fill="#375CE0"/>
</svg>
