<svg width="16" height="16" viewBox="0 0 16 16" fill="none" xmlns="http://www.w3.org/2000/svg">
<path d="M10.4333 1.33334C10.6477 1.33334 10.845 1.35182 11 1.50001L14.4198 4.50001C14.5843 4.65723 14.6666 4.87245 14.6666 5.10001V12.8333C14.6666 13.6618 13.995 14.3333 13.1666 14.3333H2.83325C2.00482 14.3333 1.33325 13.6618 1.33325 12.8333V2.83334C1.33325 2.00492 2.00482 1.33334 2.83325 1.33334H10.4333ZM3.99992 2.33268L2.83325 2.33334C2.55711 2.33334 2.33325 2.5572 2.33325 2.83334V12.8333C2.33325 13.1095 2.55711 13.3333 2.83325 13.3333H3.33325V9.50001C3.33325 8.88789 3.80466 8.38588 4.40423 8.33721L4.49992 8.33334H11.5229C12.1351 8.33334 12.6163 8.82889 12.6629 9.43088L12.6666 9.52675V13.3333H13.1666C13.4427 13.3333 13.6666 13.1095 13.6666 12.8333V5.1774L10.3574 2.33334L10.3333 2.33268V4.50167C10.3333 5.146 9.81092 5.66834 9.16659 5.66834H5.16659C4.52225 5.66834 3.99992 5.146 3.99992 4.50167V2.33268ZM11.5229 9.33334H4.49992C4.42102 9.33334 4.35493 9.38817 4.33765 9.4618L4.33325 9.50001V13.3333H11.6666V9.50001C11.6666 9.4233 11.6308 9.3587 11.5655 9.3393L11.5229 9.33334ZM9.33325 2.33268H4.99992V4.50167C4.99992 4.59372 5.07454 4.66834 5.16659 4.66834H9.16659C9.25863 4.66834 9.33325 4.59372 9.33325 4.50167V2.33268Z" fill="#212121"/>
</svg>
